HIERARCHY
ROOT joint_0
{
	OFFSET 0.000000 0.000000 0.000000
	CHANNELS 6 Xposition Yposition Zposition Zrotation Yrotation Xrotation 
	JOINT joint_1
	{
		OFFSET 6.579712 -2.778931 100.531982
		CHANNELS 3 Zrotation Yrotation Xrotation
		JOINT joint_2
		{
			OFFSET -3.313232 -1.302856 91.974976
			CHANNELS 3 Zrotation Yrotation Xrotation
			JOINT joint_3
			{
				OFFSET -3.421509 -1.641846 91.864014
				CHANNELS 3 Zrotation Yrotation Xrotation
				JOINT joint_4
				{
					OFFSET 7.697388 -4.642578 123.278931
					CHANNELS 3 Zrotation Yrotation Xrotation
					JOINT joint_5
					{
						OFFSET 24.842529 -5.941528 79.695068
						CHANNELS 3 Zrotation Yrotation Xrotation
						End Site
						{
							OFFSET 0.000000 0.000000 0.000000
						}
					}
				}
				JOINT joint_6
				{
					OFFSET -0.159668 -29.112976 68.364014
					CHANNELS 3 Zrotation Yrotation Xrotation
					JOINT joint_7
					{
						OFFSET -18.356079 -115.987061 -20.069092
						CHANNELS 3 Zrotation Yrotation Xrotation
						JOINT joint_8
						{
							OFFSET 31.719482 -11.733276 -267.170898
							CHANNELS 3 Zrotation Yrotation Xrotation
							JOINT joint_9
							{
								OFFSET 29.329956 -5.879517 -234.654053
								CHANNELS 3 Zrotation Yrotation Xrotation
								End Site
								{
									OFFSET 0.000000 0.000000 0.000000
								}
							}
						}
					}
				}
				JOINT joint_10
				{
					OFFSET 8.802979 23.897949 69.798950
					CHANNELS 3 Zrotation Yrotation Xrotation
					JOINT joint_11
					{
						OFFSET 21.159058 115.524292 -19.981934
						CHANNELS 3 Zrotation Yrotation Xrotation
						JOINT joint_12
						{
							OFFSET 18.809204 5.403442 -268.593018
							CHANNELS 3 Zrotation Yrotation Xrotation
							JOINT joint_13
							{
								OFFSET 20.807861 0.421265 -235.639038
								CHANNELS 3 Zrotation Yrotation Xrotation
								End Site
								{
									OFFSET 0.000000 0.000000 0.000000
								}
							}
						}
					}
				}
			}
		}
	}
	JOINT joint_14
	{
		OFFSET -9.713379 -79.513916 -99.348022
		CHANNELS 3 Zrotation Yrotation Xrotation
		JOINT joint_15
		{
			OFFSET -40.607788 -6.518372 -502.938019
			CHANNELS 3 Zrotation Yrotation Xrotation
			JOINT joint_16
			{
				OFFSET -19.807617 -7.437378 -399.590012
				CHANNELS 3 Zrotation Yrotation Xrotation
				JOINT joint_17
				{
					OFFSET 171.701660 -44.751282 -77.782000
					CHANNELS 3 Zrotation Yrotation Xrotation
					End Site
					{
						OFFSET 0.000000 0.000000 0.000000
					}
				}
			}
		}
	}
	JOINT joint_18
	{
		OFFSET 17.854858 79.618652 -98.128052
		CHANNELS 3 Zrotation Yrotation Xrotation
		JOINT joint_19
		{
			OFFSET -24.848877 16.861816 -503.722992
			CHANNELS 3 Zrotation Yrotation Xrotation
			JOINT joint_20
			{
				OFFSET -30.162476 14.470093 -398.750008
				CHANNELS 3 Zrotation Yrotation Xrotation
				JOINT joint_21
				{
					OFFSET 176.096680 -10.987549 -80.021000
					CHANNELS 3 Zrotation Yrotation Xrotation
					End Site
					{
						OFFSET 0.000000 0.000000 0.000000
					}
				}
			}
		}
	}
}
MOTION
Frames: 16
Frame Time: 0.016667
-1088.542603 946.681091 1096.430054 5.238107 -0.397137 -0.348271 0.195719 0.503565 0.552733 0.192814 -0.078890 -0.131963 0.205441 0.105106 0.108590 -0.022728 1.364038 0.378521 0.000000 0.000000 0.000000 3.193728 -5.235408 -4.142486 -9.225760 -12.004612 -0.414078 -0.066527 -68.291631 11.687401 0.000000 0.000000 0.000000 2.518408 -25.407023 -0.229532 -2.306633 -1.945532 -4.806137 -2.188666 -73.195963 -11.468492 0.000000 0.000000 0.000000 0.122309 -7.322430 -2.565721 -0.472371 13.219503 3.792051 0.530396 -8.951546 -2.107958 0.000000 0.000000 0.000000 1.465022 -3.985477 -1.725454 1.846104 9.088573 1.213089 1.530269 -7.989019 0.187595 0.000000 0.000000 0.000000 
-1088.687134 947.358276 1096.500977 5.130297 -0.012231 -0.120014 0.371084 0.481678 0.428375 0.383515 -0.108933 -0.080244 0.403824 0.095980 0.073660 -0.098774 1.307586 0.323862 0.000000 0.000000 0.000000 3.496135 -7.564141 -4.806657 -10.677906 -14.807643 0.160184 -0.117906 -66.516291 12.755471 0.000000 0.000000 0.000000 2.217154 -30.328170 -0.390874 -3.883792 -1.451732 -5.558315 -1.871847 -70.049099 -9.757826 0.000000 0.000000 0.000000 0.134499 -8.130886 -2.839747 -0.458088 14.115257 3.748367 0.612596 -9.689629 -2.266394 0.000000 0.000000 0.000000 1.557023 -4.421597 -2.004817 1.967071 9.245703 1.217731 1.637673 -8.548654 0.200185 0.000000 0.000000 0.000000 
-1088.569092 947.872253 1096.614014 5.047429 0.285394 0.117338 0.579127 0.668750 0.316078 0.591404 -0.178768 -0.021386 0.626397 0.126089 0.028962 -0.178634 1.188576 0.226801 0.000000 0.000000 0.000000 3.728939 -10.176087 -5.630956 -11.711098 -17.012686 0.910781 -0.259611 -63.854996 13.380156 0.000000 0.000000 0.000000 1.545739 -34.417440 0.034102 -4.938001 -1.156983 -6.676426 -1.831084 -66.212958 -8.100525 0.000000 0.000000 0.000000 0.159161 -8.737555 -3.114827 -0.435876 14.814451 3.716077 0.692489 -10.359080 -2.407885 0.000000 0.000000 0.000000 1.642743 -4.720986 -2.249276 2.074332 9.345596 1.162639 1.726046 -9.092505 0.205447 0.000000 0.000000 0.000000 
-1087.856812 948.525330 1096.639038 5.026809 0.535058 0.337110 0.754190 1.077815 0.321794 0.744476 -0.254349 0.000527 0.809672 0.195846 0.017312 -0.238439 0.940987 0.103735 0.000000 0.000000 0.000000 3.322762 -12.589278 -6.315532 -12.240782 -19.039830 1.928819 -0.215649 -61.056484 13.598094 0.000000 0.000000 0.000000 1.218220 -38.072142 0.090300 -5.754913 -0.915484 -7.540394 -1.937211 -62.668788 -6.712555 0.000000 0.000000 0.000000 0.180853 -9.198318 -3.389300 -0.424255 15.387439 3.709616 0.755513 -10.916557 -2.527554 0.000000 0.000000 0.000000 1.711523 -4.954795 -2.480124 2.158367 9.474155 1.111287 1.793131 -9.600796 0.203369 0.000000 0.000000 0.000000 
-1086.769043 949.562866 1096.465942 5.066751 0.577043 0.512568 0.862405 1.896916 0.564321 0.795691 -0.325657 -0.065405 0.908130 0.301365 0.070162 -0.262061 0.592548 -0.039794 0.000000 0.000000 0.000000 1.504906 -14.446942 -6.928923 -12.039698 -21.335552 4.004220 0.442738 -58.175545 13.039769 0.000000 0.000000 0.000000 1.950102 -41.436220 -0.782019 -6.662053 -0.686290 -8.054746 -2.119227 -59.625298 -5.643672 0.000000 0.000000 0.000000 0.199785 -9.352636 -3.652938 -0.431435 15.858579 3.736860 0.797028 -11.434423 -2.646253 0.000000 0.000000 0.000000 1.779223 -5.007576 -2.705251 2.225611 9.740675 1.120089 1.850047 -10.137922 0.194668 0.000000 0.000000 0.000000 
-1085.088013 950.739380 1096.204956 5.165566 0.563634 0.667353 0.939110 2.949351 0.939858 0.804056 -0.395246 -0.159236 0.979516 0.420385 0.144590 -0.225714 0.103546 -0.220080 0.000000 0.000000 0.000000 -1.121839 -15.551292 -7.475986 -11.536964 -23.898975 6.857291 1.550135 -55.394330 11.791071 0.000000 0.000000 0.000000 3.219768 -44.269166 -1.964220 -7.544768 -0.569313 -8.602117 -2.309104 -56.950245 -4.811347 0.000000 0.000000 0.000000 0.216149 -9.352743 -3.912884 -0.450264 16.204936 3.792843 0.821240 -11.848112 -2.745222 0.000000 0.000000 0.000000 1.830287 -4.986270 -2.911798 2.269224 10.035052 1.133402 1.886060 -10.639233 0.178802 0.000000 0.000000 0.000000 
-1081.828857 951.626648 1096.052002 5.362227 0.991250 0.852216 1.012684 3.725253 1.226556 0.838237 -0.463600 -0.195723 1.077924 0.530220 0.184426 -0.151525 -0.689756 -0.428628 0.000000 0.000000 0.000000 -3.022412 -16.173483 -7.835802 -11.245924 -25.933073 8.998112 2.433890 -53.689497 10.557350 0.000000 0.000000 0.000000 3.837670 -46.288056 -2.555797 -8.081689 -0.682601 -9.257454 -2.417727 -55.181482 -4.100854 0.000000 0.000000 0.000000 0.211811 -9.712977 -4.195049 -0.474977 16.427116 3.872491 0.828542 -11.908792 -2.759440 0.000000 0.000000 0.000000 1.805770 -5.284457 -3.091328 2.260759 10.114730 1.044050 1.865654 -10.896171 0.153369 0.000000 0.000000 0.000000 
-1076.637939 952.042969 1096.208008 5.761928 2.155504 1.095659 1.144523 4.120454 1.352161 0.969748 -0.537335 -0.146220 1.215153 0.614855 0.164973 -0.088400 -2.068677 -0.691197 0.000000 0.000000 0.000000 -3.789468 -17.012658 -8.360351 -10.536459 -26.148678 9.620267 2.594261 -54.142351 9.566799 0.000000 0.000000 0.000000 2.524698 -46.505238 -1.274520 -7.538475 -1.744391 -10.337737 -2.504692 -54.949865 -3.615734 0.000000 0.000000 0.000000 0.145440 -10.669332 -4.498729 -0.530895 16.332832 3.960364 0.773262 -11.318225 -2.630694 0.000000 0.000000 0.000000 1.641757 -6.117953 -3.229531 2.148623 9.758271 0.781822 1.730569 -10.796738 0.099710 0.000000 0.000000 0.000000 
-1069.869873 952.169861 1096.473022 6.268182 3.751053 1.375972 1.296288 4.249782 1.429555 1.144475 -0.567498 -0.076812 1.333120 0.612157 0.102342 -0.069828 -3.749347 -1.001664 0.000000 0.000000 0.000000 -3.884292 -18.037633 -9.109031 -9.503317 -25.190792 9.466855 2.348094 -55.659001 8.601332 0.000000 0.000000 0.000000 0.371107 -45.516255 1.008284 -6.346423 -3.338352 -11.725317 -2.587838 -55.634733 -3.376737 0.000000 0.000000 0.000000 0.056741 -11.974273 -4.816101 -0.588054 16.099895 4.063008 0.701070 -10.346909 -2.409725 0.000000 0.000000 0.000000 1.404476 -7.262532 -3.324345 1.986749 9.176714 0.408591 1.543029 -10.410429 0.040518 0.000000 0.000000 0.000000 
-1061.600952 952.123779 1096.443970 6.621870 5.383845 1.664733 1.363896 3.928842 1.467327 1.234174 -0.523046 -0.063742 1.370533 0.515952 0.059760 -0.082561 -5.065691 -1.225642 0.000000 0.000000 0.000000 -3.158390 -19.083756 -9.683968 -9.016066 -24.587838 8.959218 2.125027 -56.062119 7.612102 0.000000 0.000000 0.000000 -0.795294 -45.022769 2.364647 -5.589099 -4.409637 -12.685635 -2.614560 -55.918613 -3.251872 0.000000 0.000000 0.000000 0.048057 -13.427012 -5.174779 -0.559298 16.285743 4.217814 0.752493 -9.604164 -2.194925 0.000000 0.000000 0.000000 1.228682 -8.462068 -3.401232 1.904148 8.779455 0.021603 1.443429 -9.818996 0.032573 0.000000 0.000000 0.000000 
-1051.104004 951.869202 1095.801025 6.676322 7.178234 2.075846 1.266657 2.777976 1.254922 1.169008 -0.448999 -0.088683 1.296033 0.395735 0.093602 -0.105645 -5.828626 -1.301570 0.000000 0.000000 0.000000 -1.131527 -20.642090 -9.708177 -9.265516 -24.812088 7.576471 2.113925 -53.925551 6.400219 0.000000 0.000000 0.000000 -0.075356 -45.736727 1.727920 -5.780793 -4.720449 -12.703191 -2.637780 -55.052494 -3.073043 0.000000 0.000000 0.000000 0.160879 -14.962991 -5.682769 -0.420460 16.603171 4.390540 0.924689 -9.219601 -2.020199 0.000000 0.000000 0.000000 1.183879 -9.790447 -3.552523 1.971895 8.519477 -0.490415 1.497267 -8.776969 0.121381 0.000000 0.000000 0.000000 
-1039.106201 951.442505 1094.864014 6.598230 9.023950 2.484155 1.069482 1.168329 0.977521 1.015838 -0.343247 -0.136863 1.140362 0.260395 0.162814 -0.137672 -6.249107 -1.290997 0.000000 0.000000 0.000000 1.722597 -22.493066 -9.446336 -9.787519 -25.209593 5.440410 2.174437 -50.662923 5.207864 0.000000 0.000000 0.000000 1.588201 -46.821281 0.126383 -6.323447 -4.682683 -12.198604 -2.642824 -53.789882 -3.049389 0.000000 0.000000 0.000000 0.346512 -16.652966 -6.238966 -0.198099 17.322952 4.617973 1.222052 -9.018910 -1.839908 0.000000 0.000000 0.000000 1.196738 -11.184075 -3.696956 2.119289 8.430568 -1.007511 1.640329 -7.506660 0.263534 0.000000 0.000000 0.000000 
-1027.869629 951.071289 1094.197021 6.534519 10.197859 2.525880 0.896563 0.020433 1.115258 0.880858 -0.163681 -0.266346 0.967626 0.141855 0.230544 -0.177248 -6.327034 -1.173140 0.000000 0.000000 0.000000 3.877261 -23.702501 -9.491775 -10.104191 -25.358451 3.914408 2.156549 -48.608499 4.426932 0.000000 0.000000 0.000000 2.753649 -47.400381 -0.897770 -6.462730 -4.653771 -11.709271 -2.500171 -53.118853 -3.640661 0.000000 0.000000 0.000000 0.560479 -18.539769 -6.601831 0.140337 19.864071 5.068791 1.857895 -9.128898 -1.602505 0.000000 0.000000 0.000000 1.171943 -12.206327 -3.644193 2.270703 9.069810 -1.084483 1.817830 -6.872820 0.377917 0.000000 0.000000 0.000000 
-1018.609985 950.939514 1094.140015 6.703000 10.105166 2.084901 0.738609 0.150394 1.780254 0.723345 -0.019166 -0.425544 0.745408 0.112899 0.315929 -0.212519 -6.044938 -0.916324 0.000000 0.000000 0.000000 4.562097 -23.682123 -10.260043 -10.005587 -25.011003 3.891685 1.933221 -49.218585 4.065859 0.000000 0.000000 0.000000 2.670951 -46.897411 -0.535955 -5.716692 -4.916562 -11.395663 -2.047937 -53.636705 -5.391183 0.000000 0.000000 0.000000 0.729027 -20.440605 -6.741962 0.629675 25.127733 5.934111 3.151432 -9.177248 -1.088163 0.000000 0.000000 0.000000 0.997466 -12.563638 -3.449857 2.347948 11.050245 -0.306348 2.010767 -7.289964 0.426914 0.000000 0.000000 0.000000 
-1010.111572 950.864136 1094.352051 7.109105 9.154305 1.465573 0.579531 1.114214 2.545285 0.461228 -0.023378 -0.533195 0.419427 0.150679 0.413346 -0.253345 -5.434652 -0.539753 0.000000 0.000000 0.000000 4.473853 -22.969171 -11.286580 -9.785865 -24.490675 4.656870 1.614765 -51.092783 4.032228 0.000000 0.000000 0.000000 2.126281 -45.995065 0.329388 -4.644586 -5.135564 -11.059325 -1.401552 -54.712025 -7.759692 0.000000 0.000000 0.000000 0.688294 -22.216215 -6.865958 1.139447 31.825243 7.001381 5.088118 -8.552225 -0.165446 0.000000 0.000000 0.000000 0.698777 -12.338397 -3.274575 2.351722 13.702448 0.961925 2.260456 -8.074908 0.470869 0.000000 0.000000 0.000000 
-1000.993774 950.523804 1094.378052 7.406092 8.231540 0.952476 0.481200 1.736406 2.988133 0.207547 -0.047184 -0.596331 0.087496 0.173935 0.464902 -0.324343 -4.577223 -0.057607 0.000000 0.000000 0.000000 4.259330 -22.115833 -11.981068 -9.846138 -24.311744 5.508985 1.335208 -52.422896 4.438823 0.000000 0.000000 0.000000 1.777752 -45.629875 0.943632 -4.023007 -4.885808 -10.688559 -0.855029 -55.556732 -9.553116 0.000000 0.000000 0.000000 0.334274 -24.229275 -7.079319 1.562515 38.437784 7.732764 7.274073 -7.482435 0.927749 0.000000 0.000000 0.000000 0.418894 -11.793203 -3.090769 2.375619 15.741878 1.972666 2.570126 -8.703124 0.547745 0.000000 0.000000 0.000000 
